<?xml version="1.0" standalone="no"?>
<!DOCTYPE svg PUBLIC "-//W3C//DTD SVG 1.1//EN" "http://www.w3.org/Graphics/SVG/1.1/DTD/svg11.dtd">
<svg class="icon" width="200px" height="200.00px" viewBox="0 0 1024 1024" version="1.1"
  xmlns="http://www.w3.org/2000/svg">
  <path d="M522.11358 687.723457l113.777778 189.629629h-227.555556z" fill="#F25E5E" />
  <path
    d="M518.320988 777.481481c-174.547753 0-316.049383-141.50163-316.049383-316.049382s141.50163-316.049383 316.049383-316.049383 316.049383 141.50163 316.049382 316.049383-141.50163 316.049383-316.049382 316.049382z m147.026172-144.573629a229.110519 229.110519 0 0 0 78.051556-172.525037c0-66.62321-28.558222-128.695309-77.470025-171.994074l-25.144889 28.393876a191.184593 191.184593 0 0 1 64.688988 143.61284c0 55.877531-24.019753 107.836049-65.169383 144.030024l25.043753 28.482371zM363.380938 286.78321a229.135802 229.135802 0 0 0-79.303111 173.599605 229.110519 229.110519 0 0 0 77.647013 172.15842l25.106962-28.419161a191.184593 191.184593 0 0 1-64.828049-143.739259c0-56.357926 24.436938-108.720988 66.218667-144.940247l-24.841482-28.659358z m157.190321 280.285234a99.113086 99.113086 0 1 0 0-198.226172 99.113086 99.113086 0 0 0 0 198.226172z"
    fill="currentColor" />
  <path
    d="M520.571259 529.142519a61.18716 61.18716 0 1 1 0-122.374321 61.18716 61.18716 0 0 1 0 122.374321z"
    fill="currentColor" />
</svg>