<?xml version="1.0" standalone="no"?>
<!DOCTYPE svg PUBLIC "-//W3C//DTD SVG 1.1//EN" "http://www.w3.org/Graphics/SVG/1.1/DTD/svg11.dtd">
<svg viewBox="0 0 1024 1024" version="1.1"
  xmlns="http://www.w3.org/2000/svg">
  <path fill="currentColor"
    d="M724.575453 760.987458h135.995731v-39.370525h-149.871405c5.688832 12.300731 10.591727 25.563415 13.875674 39.370525z m-168.377762-534.894505c2.932936 3.446661 6.303869 6.752098 10.06777 9.886636 2.692448 3.524436 4.267392 7.026357 4.267391 10.26016 0 5.636641-4.311396 12.060242-12.147227 18.089851-8.600278 6.626225-10.221273 18.976077-3.632911 27.610126a19.609534 19.609534 0 0 0 15.583654 7.698702c4.157893 0 8.349556-1.329339 11.906739-4.065791 17.728607-13.652583 27.490393-31.178566 27.490393-49.333911 0-12.196348-4.48639-24.059083-12.738727-34.685604a19.773271 19.773271 0 0 0-1.948468-2.44582c-2.931913-3.452801-6.313079-6.746981-10.066746-9.876401-2.704728-3.551043-4.290929-7.052965-4.279672-10.308258 0-5.625384 4.311396-12.038752 12.13597-18.068361 8.602325-6.614969 10.221273-18.96482 3.633935-27.599892-6.577104-8.623815-18.877835-10.259137-27.479136-3.644168-17.728607 13.641326-27.490393 31.157075-27.50165 49.312421 0 12.162578 4.476156 24.015079 12.694722 34.6416 0.60071 0.886226 1.258727 1.734587 2.013963 2.52871z m114.031457 0c2.932936 3.457918 6.304892 6.752098 10.046278 9.886636 2.703705 3.524436 4.278648 7.026357 4.278649 10.26016 0 5.636641-4.311396 12.060242-12.13597 18.089851-8.601301 6.626225-10.221273 18.976077-3.632912 27.610126a19.572693 19.572693 0 0 0 15.572398 7.698702 19.525619 19.525619 0 0 0 11.917995-4.065791c17.728607-13.652583 27.490393-31.178566 27.490393-49.333911 0-12.174858-4.48639-24.027359-12.716212-34.664114a20.134515 20.134515 0 0 0-1.981216-2.46731c-2.931913-3.464058-6.314102-6.746981-10.057536-9.887658-2.712915-3.539786-4.289905-7.059105-4.289905-10.298025 0-5.625384 4.311396-12.038752 12.147227-18.068361 8.579811-6.614969 10.221273-18.96482 3.633935-27.599892-6.588361-8.623815-18.878858-10.259137-27.491417-3.644168-17.728607 13.641326-27.490393 31.157075-27.490393 49.312421-0.01228 12.162578 4.464899 24.003822 12.684489 34.6416a18.682374 18.682374 0 0 0 2.024197 2.529734z m196.011424 173.207999c-5.362382 0-10.594797 0.513724-15.715667 1.329339v-73.294752h-416.676501v94.224414c9.127306 2.182817 18.691584 5.017511 28.343871 8.885794a172.325867 172.325867 0 0 1 10.86701 4.804653v-68.544337h0.689741v-0.46051h336.85479v0.46051h0.711232v224.918142c0 32.568282-26.373912 59.05681-58.811205 59.05681h-68.440979c-0.787984 5.591613-2.155186 12.026471-4.38917 19.10195a318.072127 318.072127 0 0 1 13.822459 20.273691h59.00769c54.049533 0 98.022086-44.162897 98.022086-98.431428v-15.042299c5.12087 0.810497 10.353285 1.319105 15.715667 1.319105 52.495056 0 95.032865-39.998865 95.032865-89.305146s-42.539856-89.295936-95.033889-89.295936z m0 139.224417c-5.494395 0-10.704296-0.918973-15.715667-2.265709v-95.307124c5.011371-1.340595 10.221273-2.276966 15.715667-2.276966 30.782527 0 55.821984 22.402271 55.821985 49.919271-0.001023 27.545654-25.039457 49.930528-55.821985 49.930528z m-226.696733 136.936194c11.927206-22.630479 10.766721-39.822848 10.581494-41.601439-1.499215-27.233531-24.56769-52.414211-26.483411-54.400544-34.986471-41.33946-89.156759-45.820733-113.627231-45.546473-1.662952-13.018103-4.650126-20.918405-4.924386-21.619404l-0.635504-1.450094c-26.811908-55.073911-101.905719-60.238786-122.305283-60.643011v-0.022514c-0.328497-0.011257-1.498192-0.02149-3.019922-0.021491-1.039729 0-1.794965 0.02149-2.057967 0.021491-20.398541 0.372501-95.470861 5.559889-122.294027 60.666548l-0.63448 1.438837c-0.624247 1.602574-15.134401 39.812614 3.359675 91.52071l68.944469 182.647428c-3.951175 4.750415-8.010825 7.507334-12.082756 8.065063-7.659814 0.990608-16.019604-4.633753-18.690561-6.953699l-131.202334-115.711805c-16.721625-19.687309-16.273396-34.82785-16.218135-35.813342 0.556705-10.117914 11.380734-24.809202 17.21386-31.080323 13.997454-16.535375 33.509769-24.562574 50.985607-28.387876-3.018898-15.457782-3.249153-29.03873-2.33018-39.779867-25.335207 4.536534-55.659271 15.666546-77.830263 41.875699-2.626953 2.779433-25.685194 27.960113-27.118915 54.312535-0.240488 2.451959-1.411207 19.797831 10.505765 42.471291-10.483252 12.436837-51.41337 63.969939-54.214293 114.596348-3.08644 22.444228 2.145976 64.81216 43.402544 72.056493 2.571692 0.526005 9.740296 1.789848 20.79151 1.789848 26.659429 0 75.839837-7.392719 136.729476-49.765768l3.217429 2.845952c2.068201 1.87581 19.523572 17.050122 42.854026 17.050122 2.15621 0 4.3554-0.130989 6.610875-0.415482 6.544357-0.825848 14.750643-3.277807 23.232212-8.968686 6.653856 9.910173 18.418348 19.709823 36.452939 20.327929v0.163737c0.307007 0 0.547495-0.076752 0.853478-0.076751 0.29575 0 0.546472 0.076752 0.842221 0.076751v-0.163737c18.04687-0.618107 29.821596-10.41878 36.475453-20.327929 8.470312 5.690879 16.667388 8.142838 23.221978 8.968686 2.254452 0.284493 4.464899 0.415482 6.622132 0.415482 23.32022 0 40.763311-15.162032 42.657542-16.874105l3.413913-3.020945c60.90192 42.373049 110.071071 49.765768 136.719243 49.765767 11.030747 0 18.209584-1.263844 20.782299-1.789848 41.267825-7.244332 46.499217-49.622498 43.434268-72.056492-2.822414-50.596732-43.728995-102.146208-54.23476-114.585092z m-522.292907 148.176729l-1.444978-0.29575c-14.906193-2.506197-11.579265-27.440249-11.446229-28.386852l0.216952-2.095832c1.379483-30.598323 25.521457-67.373619 40.261867-86.131721l91.083737 80.483823c-70.738411 46.073502-118.38788 36.481593-118.671349 36.426332z m268.260308-23.014237c-0.810497 2.15621-2.550201 4.585655-5.909877 4.978623-3.337162-0.392968-5.066632-2.79069-5.723626-4.502763l-79.582247-210.920688c-12.212722-34.154483-5.176131-58.860326-3.851909-62.926116 15.867124-30.800947 65.858029-37.6124 87.6688-37.7219v0.011257c0.688718-0.022514 1.53094-0.011257 2.319947-0.011257 0.218998 0.011257 0.46972 0 0.678484 0.011257v-0.011257c21.778024 0.174994 71.757673 6.921975 87.646287 37.677895 1.466468 4.502763 8.306575 29.06636-3.698406 62.640601l-79.547453 210.774348z m131.266806-60.605147l-1.116481 1.592341-52.309829 46.126716c-0.088009 0.086985-9.532554 7.846065-18.34262 6.789962-4.135379-0.513724-8.227777-3.282924-12.234212-8.09781l69.053968-182.944201a158.203564 158.203564 0 0 0 7.583062-30.215588c17.160645-0.338731 59.368934 2.178723 85.065385 32.475156 4.934619 5.230369 15.932618 20.119165 16.524118 30.631071 0.02149 0.645737 0.482 15.785255-16.240648 35.473587l-77.600008 68.440979-0.382735-0.272213z m126.639193 83.323634l-1.444978 0.29575c-0.491211 0.099265-47.800925 9.745412-118.627344-36.392561l91.136951-80.397861c14.75269 18.801083 38.795399 55.474043 40.186139 86.010965l0.196484 2.095832c0.044004 0.268119 3.786415 25.827441-11.447252 28.387875z" />
</svg>