<?xml version="1.0" standalone="no"?>
<!DOCTYPE svg PUBLIC "-//W3C//DTD SVG 1.1//EN" "http://www.w3.org/Graphics/SVG/1.1/DTD/svg11.dtd">
<svg class="icon" width="200px" height="200.00px" viewBox="0 0 1024 1024" version="1.1"
  xmlns="http://www.w3.org/2000/svg">
  <path
    d="M194.792475 478.69343c16.167215 0 29.330002-13.163811 29.330002-29.346375 0-16.092513-13.015432-29.212322-29.801746-29.212322-0.086981 0-0.177032 0-0.264013 0l-60.606333 0.177032c-1.560542-0.206708-3.149736-0.325411-4.76963-0.325411-21.291932 0-38.636972 17.537422-38.636972 39.09439l-0.323365 423.853427c0 21.645996 16.9613 38.578644 38.636972 38.578644l1.677199 0.057305c0.707105 0.029676 1.385557 0.059352 2.032286 0.059352 0.823761 0 1.64957-0.029676 1.826602-0.11768l59.926858 0.086981c0.559748 0 1.001817-0.11768 1.089821-0.11768 0 0-0.029676 0-0.116657 0.057305l3.76986-0.147356 0-0.382717c13.517875-2.236947 23.64656-13.84124 23.64656-27.799136 0-13.987572-10.129708-25.589818-23.64656-27.828812l0-0.766456-49.827849 0 1.413186-385.92356L194.792475 478.69036z"
    fill="currentColor" />
  <path
    d="M918.228001 436.301947c-18.199501-29.66974-45.204551-44.821835-82.22163-46.322002-1.883907-0.25071-3.799536-0.412392-5.77247-0.412392l-195.744149-0.648776c13.398148-40.359196 20.732184-83.750449 20.732184-122.740462 0-27.255761-3.00545-54.686507-8.894577-81.543178l-1.206478-3.196809-0.089028 0.01535c-12.161994-46.837748-53.477982-79.259158-101.626585-79.259158-55.393611 0-97.18032 46.248324-97.18032 107.576087l-0.059352 3.047406c-0.057305 2.222621-0.116657 4.40124 0.059352 6.16849-2.796696 101.715613-83.869153 187.397041-188.559517 199.324698l-3.358491 0.36839-0.76441 274.43128 0 228.491994 13.930267 0.005117 0.587378 0.11154 3.179412-0.027629 0.01535-0.081864 485.653959 0.198521 8.685823-0.236384c19.84907 0 31.038924-5.03569 48.621371-16.344247 16.22452-10.482749 29.359678-25.266453 37.751812-42.316781 2.562359-3.76986 4.418636-7.862062 5.565762-12.251022l75.30101-336.657506c1.089821-4.225231 1.472538-8.643867 1.149173-12.56006C935.660023 478.42737 930.212964 455.900308 918.228001 436.301947zM879.148961 488.807788l-0.912789 3.799536 0.295735 0.074701-80.129992 355.2387-0.148379 0.353041c-2.296299 5.536087-6.15314 10.160407-11.101849 13.340843-3.415796 2.209318-7.185656 3.622504-11.161201 4.239558-0.470721-0.057305-0.941442-0.057305-1.413186-0.057305l-3.03308 0.086981-462.84344-0.530073-0.177032-392.299781c79.540567-35.986609 148.155295-73.959455 183.080735-167.79868l0.295735 0.074701 1.119497-3.328815c3.709485-11.263531 6.596232-22.350031 8.598842-32.909527 5.447059-28.577872 5.212722-56.422034 5.183046-58.041928-1.766226-13.502525 1.206478-24.738427 8.80555-33.394574 8.598842-9.777691 21.673625-14.151301 30.744211-14.151301 22.586414 0.766456 45.526893 30.966269 45.61592 48.163953 0.029676 0.26606 5.38873 26.945699 5.418406 55.186903 0.057305 27.65178-2.651386 45.277206-3.858888 51.828412l-0.500397 0-0.589424 3.062755c-5.595438 29.522384-15.518438 57.794287-29.41903 84.003206l-0.972141 2.856048 0.118704 0.132006c-1.885953 4.696975-2.856048 9.643638-2.856048 14.709003 0 25.032116 27.121707 25.032116 41.697681 25.032116l233.381351 0.264013 7.15598 0.221034c1.266853 0.045025 2.503007 0.089028 3.592828 0.118704l0 0.425695 5.538133-0.248663c10.453073 0 19.937075 5.344728 25.412786 14.296611C880.709503 471.080032 881.829 480.283648 879.148961 488.807788z"
    fill="currentColor" />
</svg>