<?xml version="1.0" standalone="no"?>
<!DOCTYPE svg PUBLIC "-//W3C//DTD SVG 1.1//EN" "http://www.w3.org/Graphics/SVG/1.1/DTD/svg11.dtd">
<svg class="icon" width="200px" height="125.72px" viewBox="0 0 1629 1024" version="1.1"
  xmlns="http://www.w3.org/2000/svg">
  <path
    d="M791.272727 881.338182c30.522182 17.431273 61.579636 26.298182 92.904728 26.298182 21.643636 0 33.698909-4.130909 52.154181-14.661819 12.113455-6.923636 17.035636-8.610909 29.346909-8.610909 12.311273 0 17.221818 1.687273 29.34691 8.610909 18.443636 10.530909 30.498909 14.661818 52.154181 14.661819 21.643636 0 33.710545-4.130909 52.154182-14.661819 12.113455-6.923636 17.035636-8.610909 29.346909-8.610909 12.311273 0 17.233455 1.687273 29.346909 8.610909 18.443636 10.530909 30.498909 14.661818 52.154182 14.661819 21.643636 0 33.710545-4.130909 52.154182-14.661819 12.113455-6.923636 17.035636-8.610909 29.346909-8.610909 12.311273 0 17.233455 1.687273 29.346909 8.610909 18.443636 10.530909 30.498909 14.661818 52.154182 14.661819 21.643636 0 33.710545-4.130909 52.154182-14.661819 12.113455-6.923636 17.035636-8.610909 29.346909-8.610909 12.311273 0 17.233455 1.687273 29.346909 8.610909 18.455273 10.530909 30.498909 14.661818 52.154182 14.661819 31.325091 0 62.370909-8.866909 92.904727-26.298182l-22.807273-40.494546c-23.808 13.602909-47.080727 20.247273-70.097454 20.247273-12.311273 0-17.221818-1.687273-29.346909-8.610909-18.443636-10.530909-30.498909-14.661818-52.154182-14.661818-21.643636 0-33.698909 4.130909-52.154182 14.661818-12.113455 6.923636-17.035636 8.610909-29.346909 8.610909-12.311273 0-17.221818-1.687273-29.346909-8.610909-18.443636-10.530909-30.498909-14.661818-52.154182-14.661818-21.643636 0-33.710545 4.130909-52.154182 14.661818-12.113455 6.923636-17.035636 8.610909-29.346909 8.610909-12.311273 0-17.233455-1.687273-29.346909-8.610909-18.443636-10.530909-30.498909-14.661818-52.154182-14.661818-21.643636 0-33.710545 4.130909-52.154182 14.661818-12.113455 6.923636-17.035636 8.610909-29.346909 8.610909-12.311273 0-17.233455-1.687273-29.346909-8.610909-18.455273-10.530909-30.498909-14.661818-52.154182-14.661818-21.643636 0-33.710545 4.130909-52.154181 14.661818-12.113455 6.923636-17.035636 8.610909-29.346909 8.610909-23.016727 0-46.289455-6.644364-70.097455-20.247273L791.272727 881.338182zM0 392.610909C30.522182 410.042182 61.579636 418.909091 92.893091 418.909091c21.643636 0 33.698909-4.130909 52.130909-14.661818 12.125091-6.923636 17.047273-8.610909 29.358545-8.610909 12.299636 0 17.221818 1.687273 29.335273 8.610909 18.443636 10.530909 30.498909 14.661818 52.142546 14.661818 21.643636 0 33.710545-4.130909 52.154181-14.661818 12.101818-6.923636 17.035636-8.610909 29.335273-8.610909 12.311273 0 17.233455 1.687273 29.346909 8.610909 18.443636 10.530909 30.487273 14.661818 52.142546 14.661818 21.643636 0 33.698909-4.130909 52.142545-14.661818 12.113455-6.923636 17.047273-8.610909 29.346909-8.610909 12.311273 0 17.221818 1.687273 29.346909 8.610909C548.119273 414.778182 560.162909 418.909091 581.818182 418.909091v-46.545455c-12.299636 0-17.221818-1.687273-29.346909-8.610909-18.443636-10.530909-30.487273-14.661818-52.130909-14.661818-21.655273 0-33.710545 4.130909-52.154182 14.661818-12.113455 6.923636-17.035636 8.610909-29.346909 8.610909-12.299636 0-17.221818-1.687273-29.335273-8.610909-18.455273-10.530909-30.498909-14.661818-52.154182-14.661818-21.643636 0-33.698909 4.130909-52.130909 14.661818-12.125091 6.923636-17.047273 8.610909-29.358545 8.610909-12.299636 0-17.221818-1.687273-29.335273-8.610909-18.443636-10.530909-30.498909-14.661818-52.142546-14.661818-21.643636 0-33.710545 4.130909-52.154181 14.661818-12.101818 6.923636-17.035636 8.610909-29.335273 8.610909-23.016727 0-46.289455-6.644364-70.085818-20.247272L0 392.610909z"
    fill="#EAEBFF" />
  <path
    d="M1338.344727 162.909091l3.479273 602.647273L973.952 977.92l-105.018182-99.909818-139.927273 137.844363 145.082182-426.554181z"
    fill="#9FA7F5" />
  <path
    d="M162.909091 843.636364l264.32 154.298181 46.498909-24.587636 255.115636-5.725091c106.356364 2.711273 164.328727 4.666182 173.940364 5.864727 9.611636 1.198545 24.727273 8.343273 45.358545 21.434182l393.623273-227.258182-568.576-125.207272L162.909091 843.636364z"
    fill="#818BEB" />
  <path d="M698.181818 389.818182l413.824 181.492363L936.727273 802.990545z" fill="#D7DAFF" />
  <path d="M708.875636 384l-49.733818 449.128727 288.279273-35.956363z" fill="#C6CBFF" />
  <path d="M1350.818909 162.909091l1.570909 603.729454L970.554182 987.112727 816.919273 960.349091z"
    fill="#EAEBFF" />
  <path
    d="M932.736 1003.822545c-7.074909 2.327273-13.707636 6.050909-21.794909 11.52-10.216727 6.912-14.370909 8.587636-24.738909 8.587637-10.379636 0-14.533818-1.675636-24.750546-8.576-15.546182-10.507636-25.716364-14.626909-43.962181-14.626909-18.257455 0-28.416 4.119273-43.962182 14.626909-10.216727 6.900364-14.370909 8.576-24.738909 8.576-10.379636 0-14.533818-1.675636-24.750546-8.576-15.546182-10.507636-25.716364-14.626909-43.962182-14.626909-18.257455 0-28.416 4.119273-43.962181 14.626909-10.216727 6.900364-14.370909 8.576-24.73891 8.576-10.379636 0-14.533818-1.675636-24.750545-8.576-15.546182-10.507636-25.716364-14.626909-43.962182-14.626909-18.257455 0-28.416 4.119273-43.962182 14.626909-10.216727 6.900364-14.370909 8.576-24.738909 8.576-0.756364 0-1.501091 0-2.245818-0.023273L162.909091 843.636364l1178.856727-75.973819-409.029818 236.16z"
    fill="#A3AAFF" />
  <path
    d="M784.314182 1009.070545l142.312727-213.504 415.138909-26.752-405.992727 234.40291c-7.796364 2.245818-14.894545 6.109091-23.714909 11.99709-10.24 6.842182-14.394182 8.506182-24.785455 8.506182-10.402909 0-14.568727-1.664-24.797091-8.494545C846.882909 1004.8 836.701091 1000.727273 818.408727 1000.727273c-14.126545 0-23.424 2.443636-34.094545 8.343272z"
    fill="#B6BCFF" />
  <path
    d="M413.090909 29.090909m-29.090909 0a29.090909 29.090909 0 1 0 58.181818 0 29.090909 29.090909 0 1 0-58.181818 0Z"
    fill="#A0DCFF" />
  <path
    d="M1495.272727 797.090909m-17.454545 0a17.454545 17.454545 0 1 0 34.909091 0 17.454545 17.454545 0 1 0-34.909091 0Z"
    fill="#82E5D1" />
  <path
    d="M919.272727 151.272727m-23.272727 0a23.272727 23.272727 0 1 0 46.545455 0 23.272727 23.272727 0 1 0-46.545455 0Z"
    fill="#FF6392" />
  <path d="M1036.846545 104.727273l43.741091 15.918545-47.755636 131.211637L989.090909 235.938909z"
    fill="#FED00F" />
  <path d="M139.636364 593.454545l40.308363-23.272727 58.181818 100.770909-40.308363 23.272728z"
    fill="#FF6392" />
</svg>