<?xml version="1.0" standalone="no"?>
<!DOCTYPE svg PUBLIC "-//W3C//DTD SVG 1.1//EN" "http://www.w3.org/Graphics/SVG/1.1/DTD/svg11.dtd">
<svg  viewBox="0 0 1024 1024" version="1.1"
  xmlns="http://www.w3.org/2000/svg">
  <path
    fill="currentColor"
    d="M742.4 819.2H281.6c-99.84-7.68-179.2-89.6-179.2-192 0-84.48 53.76-153.6 128-181.76V435.2c0-128 102.4-230.4 230.4-230.4s230.4 102.4 230.4 230.4h25.6l51.2 5.12c87.04 17.92 153.6 94.72 153.6 186.88 0 102.4-79.36 184.32-179.2 192zM281.6 486.4c-76.8 0-128 64-128 140.8S217.6 768 294.4 768h435.2c76.8 0 140.8-64 140.8-140.8S806.4 486.4 729.6 486.4H640v-51.2c0-92.16-87.04-168.96-179.2-168.96s-179.2 76.8-179.2 168.96v51.2z" />
</svg>