<?xml version="1.0" standalone="no"?>
<!DOCTYPE svg PUBLIC "-//W3C//DTD SVG 1.1//EN" "http://www.w3.org/Graphics/SVG/1.1/DTD/svg11.dtd">
<svg class="icon" width="200px" height="200.00px" viewBox="0 0 1024 1024" version="1.1"
  xmlns="http://www.w3.org/2000/svg">
  <path
    d="M513.3312 512m-436.2752 0a436.2752 436.2752 0 1 0 872.5504 0 436.2752 436.2752 0 1 0-872.5504 0Z"
    fill="currentColor" />
  <path
    d="M559.872 187.1872l66.4064 134.5024a51.9168 51.9168 0 0 0 39.0656 28.3648l148.4288 21.5552c42.5472 6.1952 59.5456 58.4704 28.7744 88.4736l-107.4176 104.704a51.7632 51.7632 0 0 0-14.8992 45.9264l25.344 147.8656c7.2704 42.3936-37.2224 74.7008-75.264 54.6816l-132.7616-69.7856a51.93216 51.93216 0 0 0-48.2816 0l-132.7616 69.7856c-38.0416 20.0192-82.5344-12.288-75.264-54.6816l25.344-147.8656c2.8672-16.8448-2.7136-33.9968-14.8992-45.9264l-107.52-104.6528c-30.7712-30.0032-13.824-82.3296 28.7744-88.4736l148.4288-21.5552c16.896-2.4576 31.488-13.056 39.0656-28.3648l66.4064-134.5024c18.9952-38.6048 73.984-38.6048 93.0304-0.0512z"
    fill="currentColor" />
  <path
    d="M846.7456 455.424c-7.68-9.6768-18.8928-16.8448-32.9728-18.8928l-148.4288-21.5552a51.9168 51.9168 0 0 1-39.0656-28.3648l-66.4064-134.5024c-19.0464-38.5536-74.0352-38.5536-93.0304 0L400.4352 386.56a51.9168 51.9168 0 0 1-39.0656 28.3648l-148.4288 21.5552c-14.08 2.048-25.2928 9.216-32.9728 18.8928 1.3312 1.6384 2.6624 3.2256 4.1984 4.7616l107.4176 104.704a51.7632 51.7632 0 0 1 14.8992 45.9264l-5.4272 31.6928c5.3248 10.0352 7.424 21.6576 5.4272 33.1264l-19.968 116.3776c12.6976 23.3472 42.9056 35.4816 69.888 21.2992l132.7616-69.7856c15.104-7.936 33.1776-7.936 48.2816 0l132.7616 69.7856c26.9824 14.1824 57.1904 2.048 69.888-21.2992l-19.968-116.3776c-1.9968-11.52 0.1024-23.0912 5.4272-33.1264l-5.4272-31.6928c-2.8672-16.8448 2.7136-33.9968 14.8992-45.9264l107.4176-104.704c1.6384-1.4848 2.9696-3.1232 4.3008-4.7104z"
    fill="currentColor" />
  <path
    d="M734.6176 695.0912l-14.4384-84.3264c-2.8672-16.8448 2.7136-33.9968 14.8992-45.9264l66.8672-65.1776-136.6528-19.8656a51.9168 51.9168 0 0 1-39.0656-28.3648L559.872 316.928c-19.0464-38.5536-74.0352-38.5536-93.0304 0L400.4352 451.4304a51.9168 51.9168 0 0 1-39.0656 28.3648l-136.6528 19.8656 66.8672 65.1776a51.7632 51.7632 0 0 1 14.8992 45.9264l-14.4384 84.3264c11.8784 11.8784 17.3056 28.8256 14.4384 45.4144l-10.9056 63.5904c15.104 14.9504 39.0144 20.736 60.8256 9.2672l132.7616-69.7856c15.104-7.936 33.1776-7.936 48.2816 0l132.7616 69.7856c21.8112 11.4688 45.7216 5.7344 60.8256-9.2672l-10.9056-63.5904c-2.816-16.5888 2.6112-33.536 14.4896-45.4144z"
    fill="currentColor" />
  <path
    d="M735.0784 564.8384l8.96-8.7552-78.7456-11.4688a51.9168 51.9168 0 0 1-39.0656-28.3648l-66.4064-134.5024c-19.0464-38.5536-74.0352-38.5536-93.0304 0L400.384 516.2496a51.9168 51.9168 0 0 1-39.0656 28.3648l-78.7456 11.4688 8.96 8.7552a51.7632 51.7632 0 0 1 14.8992 45.9264l-23.9616 139.8272 9.0624 8.8576a51.7632 51.7632 0 0 1 14.8992 45.9264l-1.0752 6.4c14.592 8.8576 33.4848 10.8032 50.9952 1.5872l132.7616-69.7856c15.104-7.936 33.1776-7.936 48.2816 0l132.7616 69.7856c17.5616 9.216 36.4544 7.3216 50.9952-1.5872l-1.0752-6.4c-2.8672-16.8448 2.7136-33.9968 14.8992-45.9264l9.0624-8.8576-23.9616-139.8272c-2.7648-16.7936 2.816-33.9968 15.0016-45.9264z"
    fill="currentColor" />
  <path
    d="M356.4544 813.312l132.7616-69.7856c15.104-7.936 33.1776-7.936 48.2816 0l132.7616 69.7856c38.0416 20.0192 82.5344-12.288 75.264-54.6816l-24.1664-140.9536-56.064-8.1408a51.9168 51.9168 0 0 1-39.0656-28.3648l-66.4064-134.5024c-19.0464-38.5536-74.0352-38.5536-93.0304 0L400.4352 581.12a51.9168 51.9168 0 0 1-39.0656 28.3648l-56.064 8.1408-24.1664 140.9536c-7.2192 42.4448 37.2224 74.752 75.3152 54.7328z"
    fill="currentColor" />
  <path
    d="M513.3312 629.6576c-54.3232 0-102.8608-34.4064-120.7808-85.6576-5.5808-16.0256 2.816-33.536 18.8416-39.1168 16.0256-5.5808 33.536 2.816 39.1168 18.8416 9.3184 26.624 34.56 44.4928 62.7712 44.4928 27.392 0 52.3776-17.2032 62.1568-42.8032a30.69952 30.69952 0 0 1 39.6288-17.7664 30.69952 30.69952 0 0 1 17.7664 39.6288c-18.688 49.3056-66.7136 82.3808-119.5008 82.3808z"
    fill="currentColor" />
</svg>