<?xml version="1.0" standalone="no"?>
<!DOCTYPE svg PUBLIC "-//W3C//DTD SVG 1.1//EN" "http://www.w3.org/Graphics/SVG/1.1/DTD/svg11.dtd">
<svg viewBox="0 0 1024 1024" version="1.1"
  xmlns="http://www.w3.org/2000/svg">
  <path
    d="M512 790.186667c-42.666667 0-75.093333-10.24-76.8-10.24-64.853333-23.893333-107.52-63.146667-129.706667-116.053333-42.666667-104.106667 13.653333-226.986667 17.066667-232.106667 3.413333-6.826667 10.24-10.24 18.773333-10.24 6.826667 1.706667 13.653333 6.826667 13.653333 15.36 6.826667 46.08 32.426667 78.506667 56.32 98.986667-20.48-87.04-15.36-158.72 15.36-213.333333 40.96-69.973333 109.226667-87.04 112.64-87.04 5.12-1.706667 10.24 0 13.653333 3.413333 3.413333 3.413333 6.826667 8.533333 6.826667 13.653333-1.706667 136.533333 17.066667 194.56 32.426667 220.16 0-39.253333 8.533333-69.973333 25.6-92.16 18.773333-23.893333 40.96-25.6 42.666667-25.6 5.12 0 10.24 1.706667 13.653333 5.12 3.413333 3.413333 5.12 8.533333 5.12 13.653333-5.12 88.746667 42.666667 121.173333 42.666667 121.173333 3.413333 3.413333 6.826667 6.826667 8.533333 11.946667C762.88 733.866667 597.333333 776.533333 580.266667 779.946667 559.786667 786.773333 535.893333 790.186667 512 790.186667zM445.44 747.52c0 0 29.013333 8.533333 66.56 8.533333 22.186667 0 40.96-3.413333 59.733333-8.533333 0 0 1.706667 0 1.706667 0 6.826667-1.706667 148.48-30.72 122.88-230.4-15.36-11.946667-47.786667-47.786667-52.906667-116.053333-11.946667 13.653333-23.893333 42.666667-17.066667 105.813333 1.706667 8.533333-5.12 17.066667-15.36 18.773333 0 0-1.706667 0-3.413333 0-5.12 0-18.773333-1.706667-34.133333-15.36-32.426667-32.426667-49.493333-110.933333-51.2-232.106667-20.48 8.533333-49.493333 27.306667-69.973333 63.146667-32.426667 56.32-30.72 133.12 0 230.4 1.706667 6.826667 0 13.653333-5.12 18.773333-5.12 5.12-11.946667 5.12-18.773333 3.413333-3.413333-1.706667-66.56-30.72-97.28-97.28-11.946667 40.96-20.48 102.4 1.706667 157.013333C354.986667 694.613333 392.533333 727.04 445.44 747.52 445.44 747.52 445.44 747.52 445.44 747.52z"
    fill="currentColor" />
</svg>