<?xml version="1.0" standalone="no"?>
<!DOCTYPE svg PUBLIC "-//W3C//DTD SVG 1.1//EN" "http://www.w3.org/Graphics/SVG/1.1/DTD/svg11.dtd">
<svg viewBox="0 0 1024 1024" version="1.1"
  xmlns="http://www.w3.org/2000/svg">
  <path
    fill="currentColor"
    d="M518.058667 876.373333l-207.488-172.928a55.168 55.168 0 0 0-27.818667-11.818666H100.010667a33.621333 33.621333 0 0 1-33.578667-33.749334V361.386667a33.877333 33.877333 0 0 1 33.578667-33.834667h182.741333a30.122667 30.122667 0 0 0 25.6-9.813333l210.176-170.24a33.792 33.792 0 0 1 54.997333 26.154666v676.906667a33.792 33.792 0 0 1-33.834666 33.749333 33.28 33.28 0 0 1-21.632-7.936z m234.325333-86.826666a34.133333 34.133333 0 0 1 11.562667-46.592 229.845333 229.845333 0 0 0 64.896-59.178667 328.917333 328.917333 0 0 0 61.397333-202.581333 256 256 0 0 0-65.92-175.317334 227.072 227.072 0 0 0-67.84-53.077333 33.706667 33.706667 0 1 1 24.917333-62.677333 279.424 279.424 0 0 1 91.989334 69.333333 327.765333 327.765333 0 0 1 84.181333 221.866667 398.464 398.464 0 0 1-74.496 242.730666 300.330667 300.330667 0 0 1-84.437333 77.269334 34.133333 34.133333 0 0 1-46.336-11.648z m-118.912-109.482667a34.133333 34.133333 0 0 1 13.824-45.824 134.784 134.784 0 0 0 40.917333-33.322667 170.112 170.112 0 0 0 38.4-113.493333 132.266667 132.266667 0 0 0-40.917333-96.426667 141.994667 141.994667 0 0 0-42.154667-29.568 33.792 33.792 0 0 1 22.656-63.658666 210.005333 210.005333 0 0 1 128 189.653333 238.250667 238.250667 0 0 1-54.016 156.672 209.706667 209.706667 0 0 1-61.184 49.834667 33.024 33.024 0 0 1-15.829333 3.925333 33.834667 33.834667 0 0 1-29.696-17.834667z" />
</svg>