<?xml version="1.0" standalone="no"?>
<!DOCTYPE svg PUBLIC "-//W3C//DTD SVG 1.1//EN" "http://www.w3.org/Graphics/SVG/1.1/DTD/svg11.dtd">
<svg class="icon" width="200px" height="200.00px" viewBox="0 0 1024 1024" version="1.1"
  xmlns="http://www.w3.org/2000/svg">
  <path
    d="M792.55789 839.238869c0 9.312237-7.548083 16.858272-16.858272 16.858272-9.311213 0-16.858272-7.547059-16.858272-16.858272 0-135.960708-110.611356-246.572064-246.572064-246.572064s-246.572064 110.611356-246.572064 246.572064c0 9.312237-7.548083 16.858272-16.858272 16.858272s-16.858272-7.547059-16.858272-16.858272c0-154.551394 125.737213-280.289632 280.289632-280.289631s280.287584 125.738237 280.287584 280.289631zM322.128658 358.041435c0-104.842786 85.295791-190.1396 190.1396-190.1396 104.839714 0 190.134481 85.296815 190.134481 190.1396s-85.294767 190.136529-190.134481 190.136529c-104.843809 0-190.1396-85.294767-190.1396-190.136529z m33.717567 0c0 86.249028 70.169933 156.419985 156.422033 156.419985 86.248004 0 156.416913-70.169933 156.416913-156.419985 0-86.2521-70.168909-156.422033-156.416913-156.422032-86.2521 0-156.422033 70.169933-156.422033 156.422032z"
    fill="currentColor" />
</svg>