<?xml version="1.0" standalone="no"?>
<!DOCTYPE svg PUBLIC "-//W3C//DTD SVG 1.1//EN" "http://www.w3.org/Graphics/SVG/1.1/DTD/svg11.dtd">
<svg viewBox="0 0 1024 1024" version="1.1"
  xmlns="http://www.w3.org/2000/svg">
  <path
    d="M461.112889 152.291556s0-0.113778 0 0z m-261.688889 291.527111z m319.601778 160.113777a41.557333 41.557333 0 0 0-32.568889 13.852445 75.747556 75.747556 0 0 0 0.341333 83.456 43.662222 43.662222 0 0 0 64.312889 0 61.838222 61.838222 0 0 0 12.544-42.24 60.871111 60.871111 0 0 0-12.202667-41.500445 41.272889 41.272889 0 0 0-32.398222-13.681777z"
    fill="currentColor" />
  <path
    d="M809.329778 781.511111a113.777778 113.777778 0 0 0 12.771555-23.950222c99.896889-256.312889-245.276444-630.926222-281.287111-669.013333l0.256 0.455111L537.6 85.333333a527.815111 527.815111 0 0 1 10.353778 68.067556c0-0.739556-0.170667-1.450667-0.256-2.161778a378.453333 378.453333 0 0 1-0.540445 77.283556c-0.426667 3.584-0.853333 7.168-1.365333 10.666666 0 0.568889-0.199111 1.137778-0.284444 1.678223-17.351111 110.506667-88.604444 176.355556-164.323556 245.020444a113.777778 113.777778 0 0 1-31.488-86.954667 307.911111 307.911111 0 0 1 7.765333-63.573333h-0.170666l0.170666-0.881778a393.813333 393.813333 0 0 0-98.929777 100.835556l-0.455112 0.711111c-2.844444 4.238222-5.688889 8.533333-8.533333 13.084444l-0.369778 0.625778q-3.868444 6.286222-7.480889 12.743111l-1.678222 3.015111c-2.446222 4.437333-4.835556 8.96-7.139555 13.624889l-0.341334 0.682667q-3.612444 7.367111-6.855111 14.904889l-1.564444 3.697778q-2.616889 6.257778-4.977778 12.629333l-1.336889 3.584c-0.910222 2.588444-1.792 5.205333-2.645333 7.850667v0.170666a337.635556 337.635556 0 0 0-2.588445 8.106667c-0.341333 1.109333-0.625778 2.247111-0.938666 3.356444q-1.962667 6.855111-3.640889 13.824-0.597333 2.389333-1.137778 4.807111c-1.308444 5.688889-2.503111 11.690667-3.498667 17.720889q-0.824889 4.920889-1.450666 9.898667v0.682667q-0.625778 4.750222-1.080889 9.557333v1.109333q-0.426667 4.664889-0.739556 9.329778v1.393778q-0.284444 4.608-0.426666 9.244444v12.657778q0 4.579556 0.227555 9.244445v1.962666q0.199111 4.636444 0.512 9.329778c0 0.682667 0 1.336889 0.142222 1.991111 0.227556 3.157333 0.540444 6.343111 0.853334 9.528889a298.040889 298.040889 0 0 0 1.422222 11.776l0.256 1.848889c0.483556 3.384889 1.052444 6.798222 1.621333 10.211555 0 0.540444 0.170667 1.080889 0.284445 1.621334q0.967111 5.432889 2.104889 10.808889l0.227555 1.223111q1.251556 5.831111 2.702222 11.633778v0.568888a419.925333 419.925333 0 0 0 16.355556 51.2 113.208889 113.208889 0 0 0 12.771555 23.950223c58.567111 102.684444 224.170667 170.012444 224.170667 170.012444a708.522667 708.522667 0 0 1-101.006222-53.276444 707.328 707.328 0 0 0 101.006222 53.276444 85.048889 85.048889 0 0 1 34.133333-62.350222l0.312889-0.227556a109.511111 109.511111 0 0 1 11.975111-7.708444l0.682667-0.369778a138.183111 138.183111 0 0 1 13.312-6.4l0.398222-0.170667a89.287111 89.287111 0 0 1 60.956445 77.226667 694.044444 694.044444 0 0 0 80.64-40.817778l-0.170667 0.170667a399.843556 399.843556 0 0 0 143.843556-129.365333zM351.004444 891.079111z m69.973334-136.220444h-32.682667V684.088889H324.266667v70.769778h-32.682667v-161.848889H324.266667v63.715555h64.028444v-63.715555H420.977778v161.848889z m162.844444-19.370667a75.406222 75.406222 0 0 1-56.888889 22.129778 76.174222 76.174222 0 0 1-57.400889-22.016 83.598222 83.598222 0 0 1-21.304888-60.672 102.940444 102.940444 0 0 1 7.395555-41.500445 76.145778 76.145778 0 0 1 15.075556-22.186666 63.032889 63.032889 0 0 1 20.935111-14.563556 88.888889 88.888889 0 0 1 34.901333-6.4 76.003556 76.003556 0 0 1 57.258667 22.186667 85.077333 85.077333 0 0 1 21.475555 61.724444 84.764444 84.764444 0 0 1-21.304889 61.326222z m35.214222-115.114667v-27.392h128.625778v27.392H699.733333v134.485334h-32.682666V620.373333z"
    fill="currentColor" />
</svg>