<?xml version="1.0" standalone="no"?>
<!DOCTYPE svg PUBLIC "-//W3C//DTD SVG 1.1//EN" "http://www.w3.org/Graphics/SVG/1.1/DTD/svg11.dtd">
<svg  viewBox="0 0 1024 1024" version="1.1"
  xmlns="http://www.w3.org/2000/svg">
  <path fill="currentColor"
    d="M524.552258 848.929032c227.922581 0 333.625806-106.363871 333.625807-333.625806s-106.363871-333.625806-333.625807-333.625807c-227.922581 0-333.625806 106.363871-333.625806 333.625807s105.703226 333.625806 333.625806 333.625806m0 48.227097c-254.348387 0-381.852903-126.843871-381.852903-381.852903s126.843871-381.852903 381.852903-381.852903c254.348387 0 381.192258 126.843871 381.192258 381.852903s-126.843871 381.852903-381.192258 381.852903zM484.913548 356.087742V673.858065c0 13.212903 10.570323 23.783226 23.783226 23.783225s23.783226-10.570323 23.783226-23.783225V356.087742c0-13.212903-10.570323-23.783226-23.783226-23.783226s-23.783226 10.570323-23.783226 23.783226M675.84 499.447742H357.409032c-13.212903 0-23.783226 10.570323-23.783226 23.783226s10.570323 23.783226 23.783226 23.783226h317.770323c13.212903 0 23.783226-10.570323 23.783226-23.783226s-9.909677-23.783226-23.122581-23.783226" />
</svg>