<?xml version="1.0" standalone="no"?>
<!DOCTYPE svg PUBLIC "-//W3C//DTD SVG 1.1//EN" "http://www.w3.org/Graphics/SVG/1.1/DTD/svg11.dtd">
<svg viewBox="0 0 1024 1024" version="1.1" xmlns="http://www.w3.org/2000/svg">
  <path fill="currentColor"
    d="M512 1003.52c-271.442 0-491.52-220.078-491.52-491.52S240.558 20.48 512 20.48 1003.52 240.558 1003.52 512 783.442 1003.52 512 1003.52z m0-40.96c248.832 0 450.56-201.728 450.56-450.56S760.832 61.44 512 61.44 61.44 263.168 61.44 512 263.168 962.56 512 962.56zM512 593.92a81.92 81.92 0 1 1 0-163.84 81.92 81.92 0 0 1 0 163.84z m0-40.96a40.96 40.96 0 1 0 0-81.92 40.96 40.96 0 0 0 0 81.92zM512 716.8a204.8 204.8 0 1 1 0-409.6 204.8 204.8 0 0 1 0 409.6z m0-40.96a163.84 163.84 0 1 0 0-327.68 163.84 163.84 0 0 0 0 327.68zM880.64 512a367.493 367.493 0 0 0-109.363-262.021 20.48 20.48 0 1 0-28.795 29.081A326.533 326.533 0 0 1 839.68 512a20.48 20.48 0 1 0 40.96 0zM251.085 753.746a367.493 367.493 0 0 1-107.93-262.595 20.48 20.48 0 1 1 40.96 0.205 326.533 326.533 0 0 0 95.97 233.431 20.48 20.48 0 0 1-28.96 28.959z" />
</svg>