<?xml version="1.0" standalone="no"?>
<!DOCTYPE svg PUBLIC "-//W3C//DTD SVG 1.1//EN" "http://www.w3.org/Graphics/SVG/1.1/DTD/svg11.dtd">
<svg  viewBox="0 0 1024 1024" version="1.1"
  xmlns="http://www.w3.org/2000/svg">
  <path fill="currentColor"
    d="M599.466667 817.066667c-98.133333 0-196.266667-38.4-270.933334-113.066667-149.333333-149.333333-149.333333-392.533333 0-544 8.533333-8.533333 21.333333-8.533333 29.866667 0l512 512c8.533333 8.533333 8.533333 21.333333 0 29.866667-72.533333 78.933333-172.8 115.2-270.933333 115.2z m-256-610.133334c-55.466667 61.866667-85.333333 140.8-85.333334 226.133334 0 91.733333 36.266667 177.066667 100.266667 241.066666 128 128 332.8 132.266667 467.2 14.933334L343.466667 206.933333zM770.133333 454.4c-12.8 0-21.333333-8.533333-21.333333-21.333333 0-83.2-66.133333-149.333333-149.333333-149.333334-12.8 0-21.333333-8.533333-21.333334-21.333333s8.533333-21.333333 21.333334-21.333333c106.666667 0 192 85.333333 192 192 0 12.8-8.533333 21.333333-21.333334 21.333333zM876.8 454.4c-12.8 0-21.333333-8.533333-21.333333-21.333333 0-140.8-115.2-253.866667-253.866667-253.866667-12.8 0-21.333333-8.533333-21.333333-21.333333s8.533333-21.333333 21.333333-21.333334c164.266667 0 296.533333 134.4 296.533333 296.533334 0 12.8-10.666667 21.333333-21.333333 21.333333zM981.333333 454.4c-12.8 0-21.333333-8.533333-21.333333-21.333333C960 234.666667 800 72.533333 599.466667 72.533333c-12.8 0-21.333333-8.533333-21.333334-21.333333s8.533333-21.333333 21.333334-21.333333C823.466667 29.866667 1002.666667 211.2 1002.666667 433.066667c0 12.8-8.533333 21.333333-21.333334 21.333333zM490.666667 1024H277.333333c-12.8 0-21.333333-8.533333-21.333333-21.333333V618.666667c0-12.8 8.533333-21.333333 21.333333-21.333334s21.333333 8.533333 21.333334 21.333334v362.666666h162.133333L384 753.066667c-4.266667-10.666667 2.133333-23.466667 12.8-27.733334 10.666667-4.266667 23.466667 2.133333 27.733333 12.8l85.333334 256c2.133333 6.4 2.133333 12.8-2.133334 19.2s-10.666667 10.666667-17.066666 10.666667z" />
</svg>