<?xml version="1.0" standalone="no"?>
<!DOCTYPE svg PUBLIC "-//W3C//DTD SVG 1.1//EN" "http://www.w3.org/Graphics/SVG/1.1/DTD/svg11.dtd">
<svg  viewBox="0 0 1024 1024" version="1.1"
  xmlns="http://www.w3.org/2000/svg">
  <path fill="currentColor"
    d="M896 128c35.3456 0 64 28.6544 64 64v640c0 35.3456-28.6544 64-64 64H128c-35.3456 0-64-28.6544-64-64V192c0-35.3456 28.6544-64 64-64h768z m0 48H128c-8.8368 0-16 7.1632-16 16v640c0 8.8368 7.1632 16 16 16h768c8.8368 0 16-7.1632 16-16V192c0-8.8368-7.1632-16-16-16zM444.8 339.6064a56 56 0 0 1 28 7.5024l201.6 116.3936c26.784 15.464 35.9616 49.712 20.496 76.4976a56 56 0 0 1-20.496 20.496l-201.6 116.3952c-26.784 15.464-61.0336 6.288-76.496-20.496a56 56 0 0 1-7.504-28V395.6048c0-30.928 25.072-56 56-56z m0 48a8 8 0 0 0-8 8v232.7872a8 8 0 0 0 12 6.928l201.6-116.3936a8 8 0 0 0 0-13.856l-201.6-116.3936a8 8 0 0 0-4-1.072z" />
</svg>