<?xml version="1.0" standalone="no"?>
<!DOCTYPE svg PUBLIC "-//W3C//DTD SVG 1.1//EN" "http://www.w3.org/Graphics/SVG/1.1/DTD/svg11.dtd">
<svg  viewBox="0 0 1024 1024" version="1.1"
  xmlns="http://www.w3.org/2000/svg">
  <path fill="currentColor"
    d="M512 127c-212.19 0-384.2 172-384.2 384.2s172 384.2 384.2 384.2 384.2-172 384.2-384.2S724.16 127 512 127z m0 722.31c-186.73 0-338.1-151.37-338.1-338.1S325.24 173.1 512 173.1s338.1 151.37 338.1 338.1S698.7 849.3 512 849.3z" />
  <path fill="currentColor"
    d="M546.55 320.1a20 20 0 0 0-20 20v180.4H349.08A23.12 23.12 0 0 0 326 543.55a23.12 23.12 0 0 0 23.05 23.05h192.51a22.89 22.89 0 0 0 5.32-0.63 20 20 0 0 0 19.65-20V340.09a20 20 0 0 0-19.98-19.99z" />
</svg>