<?xml version="1.0" standalone="no"?>
<!DOCTYPE svg PUBLIC "-//W3C//DTD SVG 1.1//EN" "http://www.w3.org/Graphics/SVG/1.1/DTD/svg11.dtd">
<svg class="icon" width="200px" height="200.00px" viewBox="0 0 1024 1024" version="1.1"
  xmlns="http://www.w3.org/2000/svg">
  <path
    d="M434.569 620.363L243.912 491.581c-71.117 105.319-43.4 248.324 61.875 319.44 105.318 71.116 248.323 43.398 319.438-61.876L434.57 620.363zM555.9 559.358a149.76 149.76 0 0 0-19.979-31.109c-7.838-9.482-16.933-17.997-26.948-25.303-11.56-8.419-24.427-15.14-38.076-19.978a149.898 149.898 0 0 0-42.185-8.469l2.563-50.362c19.398 1.02 38.458 4.839 56.41 11.225 17.95 6.385 35.124 15.432 50.945 26.945 13.402 9.723 25.494 21.142 35.992 33.768a200.35 200.35 0 0 1 26.702 41.605l-45.424 21.678z m126.218-57.378c-9.576-22.106-21.962-42.767-36.864-61.392l0.097-0.048a268.998 268.998 0 0 0-51.666-49.39 269.182 269.182 0 0 0-71.987-37.204c-25.64-8.71-52.54-13.548-79.729-14.176l1.21-50.31c32.512 0.725 64.488 6.481 94.724 16.689 30.187 10.257 59.023 25.154 85.386 44.361 23.076 16.789 43.735 36.623 61.394 58.684h0.099a321.266 321.266 0 0 1 43.733 72.854L682.12 501.98z m125.592-55.874c-14.37-32.122-32.898-62.116-54.912-89.257a404.183 404.183 0 0 0-76.145-72.325 405.321 405.321 0 0 0-105.707-55.247 402.21 402.21 0 0 0-117.172-22.064l1.792-50.362c45.135 1.692 89.547 10.158 131.782 24.819a456.723 456.723 0 0 1 118.912 62.167 456.516 456.516 0 0 1 85.632 81.228 457.264 457.264 0 0 1 61.83 100.526l-46.012 20.515z"
    fill="currentColor" />
  <path
    d="M446.179 594.674L232.881 450.603c-34.396 56.601-44.409 121.769-32.657 182.628 12.532 64.68 49.83 124.67 108.804 164.485l0.338 0.245c58.875 39.67 128.298 51.764 192.884 39.232 60.907-11.803 117.56-45.475 157.23-98.496L446.179 594.674zM236.268 422.448l224.035 151.28L684.295 725.01l12.723 8.614-10.062 10.01c-43.737 64.105-109.24 104.642-179.92 118.334-71.068 13.74-147.407 0.436-212.138-43.298l-1.065-0.727h-0.046c-64.102-43.733-104.64-109.237-118.331-179.964-13.743-71.07-0.391-147.41 43.296-212.14l7.066-10.449 10.45 7.059z"
    fill="currentColor" />
</svg>