<?xml version="1.0" standalone="no"?>
<!DOCTYPE svg PUBLIC "-//W3C//DTD SVG 1.1//EN" "http://www.w3.org/Graphics/SVG/1.1/DTD/svg11.dtd">
<svg class="icon" width="200px" height="200.00px" viewBox="0 0 1024 1024" version="1.1"
  xmlns="http://www.w3.org/2000/svg">
  <path
  fill="currentColor"
    d="M512 807.727407c-8.912593 0-17.73037-3.034074-24.841481-8.438519-4.835556-3.697778-48.355556-37.546667-99.745185-84.005926-68.456296-61.914074-117.57037-115.863704-146.014815-160.426667-12.894815-20.195556-25.220741-40.201481-34.702222-62.767407-11.377778-26.927407-16.877037-53.475556-16.877037-81.351111 0-51.294815 18.394074-99.65037 51.863704-136.248889 34.417778-37.546667 80.402963-58.311111 129.517037-58.311111 54.992593 0 106.666667 26.927407 140.8 71.964444 34.133333-45.037037 85.807407-71.964444 140.8-71.964444 49.114074 0 95.099259 20.66963 129.517037 58.311111 33.46963 36.598519 51.863704 84.954074 51.863704 136.248889 0 63.146667-29.866667 109.985185-51.579259 144.118519-28.34963 44.562963-77.463704 98.512593-146.014815 160.426667-51.38963 46.459259-94.90963 80.308148-99.745185 84.005926C529.73037 804.788148 520.912593 807.727407 512 807.727407L512 807.727407z" />
</svg>