<?xml version="1.0" standalone="no"?>
<!DOCTYPE svg PUBLIC "-//W3C//DTD SVG 1.1//EN" "http://www.w3.org/Graphics/SVG/1.1/DTD/svg11.dtd">
<svg  viewBox="0 0 1024 1024" version="1.1"
  xmlns="http://www.w3.org/2000/svg">
  <path fill="currentColor"
    d="M513 896.67c-211.98 0-383.83-171.84-383.83-383.82S301.02 129.02 513 129.02s383.83 171.85 383.83 383.83S724.98 896.67 513 896.67z m0-734.4c-193.63 0-350.58 156.95-350.58 350.58 0 193.61 156.95 350.56 350.58 350.56 193.61 0 350.58-156.95 350.58-350.56 0-193.62-156.97-350.58-350.58-350.58z m150.2 267.17c-18.51 0-33.53-14.9-33.53-33.27s15.02-33.25 33.53-33.25c18.53 0 33.53 14.88 33.53 33.25 0 18.37-15 33.27-33.53 33.27z m-17.73 100.3h1.15c0-0.09-0.05-0.17-0.05-0.26 0-9.19 7.45-16.63 16.63-16.63 9.19 0 16.63 7.43 16.63 16.63 0 1.19-0.44 2.22-0.66 3.33 0.35 4.4 0.66 8.81 0.66 13.29 0 92.14-74.69 166.85-166.83 166.85S346.15 638.24 346.15 546.1c0-4.5 0.33-8.93 0.68-13.35-0.23-1.1-0.68-2.11-0.68-3.28 0-9.19 7.57-16.63 16.91-16.63 9.33 0 16.91 7.43 16.91 16.63 0 0.09-0.05 0.17-0.05 0.26h1.15c-0.66 5.37-1.1 10.82-1.1 16.37 0 73.78 59.69 133.57 133.31 133.57 73.61 0 133.29-59.79 133.29-133.57 0-5.54-0.43-10.98-1.1-16.36zM362.8 429.44c-18.53 0-33.53-14.9-33.53-33.27s15-33.25 33.53-33.25c18.51 0 33.52 14.88 33.52 33.25-0.01 18.37-15.01 33.27-33.52 33.27z" />
</svg>