<?xml version="1.0" standalone="no"?>
<!DOCTYPE svg PUBLIC "-//W3C//DTD SVG 1.1//EN" "http://www.w3.org/Graphics/SVG/1.1/DTD/svg11.dtd">
<svg  viewBox="0 0 1024 1024" version="1.1"
  xmlns="http://www.w3.org/2000/svg">
  <path fill="currentColor"
    d="M125.9 648.7c-4.2 0-8.3-1.6-11.3-4.7-4.3-4.3-5.8-10.5-3.9-16.3l32-98.2c-30.6-45-46.7-97.4-46.7-152 0-72.4 28.2-140.5 79.4-191.7 51.2-51.2 119.3-79.4 191.8-79.4s140.6 28.2 191.8 79.4c51.2 51.2 79.4 119.3 79.4 191.7 0 9-0.5 18.2-1.4 27.1C624.9 526.2 532.4 625 411.9 645c-14.2 2.5-29.3 3.7-44.7 3.7-46.6 0-92.3-12-132.6-34.7l-103.7 33.9c-1.7 0.6-3.4 0.8-5 0.8z m110.5-68.1c2.9 0 5.7 0.8 8.2 2.3 36.9 22.2 79.2 33.9 122.5 33.9 13.6 0 26.9-1.1 39.3-3.3h0.1c106.3-17.6 187.9-104.8 198.4-212v-0.2c0.8-7.8 1.3-15.8 1.3-23.8 0-131.9-107.3-239.1-239.1-239.1S128 245.6 128 377.5c0 50.6 15.7 99.1 45.3 140.2 3 4.1 3.8 9.5 2.2 14.3l-24.7 75.8 80.6-26.4c1.6-0.6 3.3-0.8 5-0.8zM809 917.7c-3 0-6.1-0.9-8.7-2.6l-122-79.2H432c-21.4 0-38.7-17.4-38.7-38.7v-168c0-7.8 5.7-14.5 13.4-15.8 106.3-17.6 187.9-104.8 198.4-212 0.8-8.2 7.7-14.4 15.9-14.4h268.3c21.4 0 38.7 17.4 38.7 38.7v371.5c0 21.4-17.4 38.7-38.7 38.7H825v65.8c0 5.9-3.2 11.3-8.4 14.1-2.4 1.2-5 1.9-7.6 1.9zM425.2 642.4v154.7c0 3.7 3 6.7 6.7 6.7H683c3.1 0 6.1 0.9 8.7 2.6L793 872.2v-52.3c0-8.8 7.2-16 16-16h80.3c3.7 0 6.7-3.1 6.7-6.7V425.7c0-3.7-3.1-6.7-6.7-6.7H635c-16.8 110.4-100.5 199.7-209.8 223.4zM400.4 331.1c0.8-4.1 3-7.4 6.5-9.9 2.5-1.6 5-2.5 7.7-2.5 1.2 0 2.4 0.2 3.4 0.6 4.1 0.8 7.2 3.2 9.3 7.1 1.2 2.3 1.9 4.5 1.9 6.8 0 1.7-0.2 3.3-0.6 4.9l-0.3 0.3c-0.4 1.2 0 2.1 1.2 2.5 18.5 6 33.1 15.6 43.8 28.9 10.7 13.3 16.1 28.6 16.1 45.8 0 22.2-7.1 41.7-21.3 58.5-14.2 16.8-36.2 28.7-66.1 35.7-1.7 0.2-3.3 0.3-4.9 0.3-2.9 0-5.8-0.5-8.6-1.5-4.3-2.1-7.7-5.1-10.2-9-1-1.9-1.6-3.6-1.6-5.3 0-1.4 0.3-2.9 0.9-4.3 1.4-3.3 4-5.3 7.7-5.9 23.5-4.7 41.5-13.4 54-25.9 12.5-12.6 18.8-27.3 18.8-44.2 0-10.7-3.1-20.3-9.4-28.9-6.3-8.5-15.3-15-27-19.3-1.9-0.6-3.2 0-4 1.9-16.1 39.1-37.6 70.5-64.5 94.2-1.4 1.2-1.9 2.7-1.2 4.3 0.6 2.5 1.2 4.9 1.9 7.4 0.6 2.1 0.8 4.1 0.6 6-0.2 2-0.7 3.8-1.5 5.4-0.8 1.7-2 3.1-3.6 4.3-1.5 1.2-3.3 2.2-5.4 2.8l-0.6 0.3c-1.4 0.4-2.9 0.6-4.3 0.6-2.3 0-4.5-0.6-6.8-1.9-3.5-1.9-5.7-4.6-6.5-8.3-0.4-1-1-1.3-1.9-0.9-17.9 9.7-34.4 14.5-49.4 14.5-11.7 0-21.3-3.6-28.6-10.8-7.3-7.2-11-17.7-11-31.5 0-19.3 7.1-38.4 21.3-57.1 14.2-18.7 32-33.4 53.4-43.8 1.9-0.8 2.9-2.3 3.1-4.3 0.4-9.7 1.3-21.8 2.8-36.4 0-0.8-0.3-1.5-0.8-2.2-0.5-0.6-1.2-0.9-2-0.9h-12c-9.5 0-22.1-0.4-38-1.2-4.1-0.4-7.6-2.1-10.5-4.9-3.1-3.1-4.6-6.8-4.6-11.1 0-3.5 1.3-6.5 4-9 2.5-2.3 5.4-3.4 8.6-3.4h1.2c16.5 1.7 29.8 2.5 40.1 2.5h13.9c2.1 0 3.2-1 3.4-3.1l1.9-18.2c0.2-4.5 2-8.3 5.3-11.4 3.3-3.1 7.1-4.6 11.4-4.6h0.3c4.1 0.2 7.5 2 10.2 5.3 1.9 2.5 2.8 5.2 2.8 8.3 0 0.8-0.1 1.8-0.3 3.1-1 4.1-2.1 9.7-3.1 16.7-0.2 0.8-0.1 1.5 0.5 2 0.5 0.5 1.2 0.8 2 0.8 33.6-1.4 63.8-4.8 90.8-10.2h2.5c2.7 0 5.2 0.8 7.4 2.5 3.1 2.5 4.6 5.6 4.6 9.3 0 4.1-1.3 7.8-4 11.1-2.7 3.1-6.1 4.9-10.2 5.6-29 4.3-60.5 7.3-94.5 9-2.1 0.2-3.2 1.3-3.4 3.4-0.8 8-1.6 17.2-2.5 27.5 0 0.8 0.3 1.5 0.9 2 0.6 0.5 1.2 0.7 1.9 0.5 16.7-4.1 32.3-6.2 46.9-6.2 3.1 0 5.4 0.1 6.8 0.2 1.4 0.1 2.4-0.6 2.8-2 0.1-1.2 0.3-2 0.6-2.8zM280.5 466c10.3 0 22-4 35.2-12 1.9-1 2.6-2.6 2.2-4.6-4.1-22.6-6.3-44.1-6.5-64.5 0-0.6-0.3-1.1-0.8-1.4-0.5-0.3-1.1-0.3-1.7 0.2-13.2 8.4-23.9 18.7-32.1 30.9-8.2 12.1-12.3 23.5-12.3 34 0 11.5 5.3 17.4 16 17.4z m61.8-97.9c-2.1 0.6-3.1 2-3.1 4v4.6c0 16.9 1.4 34.1 4.3 51.6 0.2 0.6 0.6 1 1.2 1.2 0.6 0.2 1.1 0.1 1.5-0.3 18.3-18.5 32.8-40.4 43.5-65.5 0.2-0.6 0.1-1.2-0.3-1.9-0.4-0.6-1-0.9-1.8-0.9-14.5 0.1-29.7 2.5-45.3 7.2zM771.7 730.7c-5.8 0-11-1.7-15.6-5.3-4.6-3.5-7.8-7.9-9.4-13.3l-13.3-44.8c-0.6-2.1-2-3.1-4-3.1h-74.7c-2.1 0-3.4 1-4 3.1l-13.6 45.4c-1.7 5.4-4.7 9.7-9.1 13-4.4 3.3-9.4 4.9-15 4.9-4.5 0-8.1-1.9-10.8-5.6-1.6-2.5-2.5-5-2.5-7.7 0-1.4 0.2-2.9 0.6-4.3l64.5-195.1c2.1-6 5.7-10.8 10.8-14.5 5.1-3.7 10.8-5.6 17.1-5.6 6.3 0 12 1.9 17.1 5.6 5.2 3.7 8.7 8.5 10.8 14.5L785 712.2c0.6 1.7 0.9 3.2 0.9 4.6 0 2.9-0.9 5.6-2.8 8-2.8 3.9-6.6 5.9-11.4 5.9z m-110.5-98.2c-0.2 0.8-0.1 1.5 0.3 2.2 0.4 0.6 1 0.9 1.9 0.9h57.4c0.8 0 1.4-0.3 1.9-0.9 0.4-0.6 0.5-1.3 0.3-2.2l-8.3-28.4c-3.9-12.5-11.2-38.1-21.9-76.6-0.2-0.4-0.5-0.6-0.9-0.6s-0.6 0.2-0.6 0.6c-5.8 22.9-12.9 48.4-21.3 76.6l-8.8 28.4z" />
</svg>